<svg height="1228pt" preserveAspectRatio="xMidYMid meet" viewBox="0 0 1228 1228" width="1228pt" xmlns="http://www.w3.org/2000/svg"><g transform="matrix(.1 0 0 -.1 0 1228)"><path d="m4640 10706c0-2 66-51 148-109 663-470 1179-1025 1606-1730l92-152 704-6 705-5 120-27c355-78 644-230 904-474 119-111 206-236 363-517 277-496 432-974 479-1480 17-181 6-550-20-731-78-519-281-1041-609-1559-90-143-142-200-278-310-212-169-427-268-704-322-74-15-190-18-875-21l-790-5-79-134c-345-585-807-1118-1337-1540-103-82-352-265-425-311-40-25 3287-6 3531 21 632 68 1168 228 1634 486 620 342 1132 839 1545 1500 115 183 169 299 271 580 188 519 296 986 352 1530 24 233 24 819 0 1050-64 616-218 1229-446 1775-172 412-514 900-900 1286-722 721-1636 1115-2776 1199-133 9-3215 15-3215 6z"/><path d="m445 10688c-3-7-4-2130-3-4718l3-4705 1654-3 1653-2 97 41c53 23 170 79 261 124 780 394 1455 997 1948 1740l93 140-1780 3-1781 2v885 885h1845 1845v1025 1025l-1842 2-1843 3-3 813-2 812h1733c954 0 1736 3 1740 6 11 12-182 277-356 488-118 143-480 507-622 625-234 195-520 393-777 540-140 79-439 226-531 260l-58 21h-1635c-1298 0-1636-3-1639-12z"/></g></svg>